# Blender v3.1.2 OBJ File: ''
# www.blender.org
mtllib AKMagazine.mtl
o AK47_Model_Cube.017
v -0.142719 0.060814 0.015431
v -0.147917 0.066075 0.015431
v -0.207044 0.068383 0.015431
v -0.213669 0.068641 0.015431
v -0.323774 -0.096444 0.011539
v -0.331069 -0.094868 0.006164
v -0.225079 0.086633 0.006164
v -0.219596 0.086633 0.011539
v -0.289010 -0.152647 0.011539
v -0.290308 -0.160766 0.006164
v -0.152019 0.086633 0.011539
v -0.146445 0.086633 0.006164
v -0.282092 -0.069138 0.011539
v -0.285961 -0.065331 0.006164
v -0.247153 -0.025370 0.011539
v -0.251940 -0.022728 0.006164
v -0.232966 0.025419 0.006164
v -0.227644 0.024152 0.011539
v -0.305907 -0.078392 0.006164
v -0.302541 -0.082537 0.011539
v -0.259864 -0.135100 0.006164
v -0.263250 -0.130930 0.011539
v -0.169096 0.010206 0.011539
v -0.163800 0.008945 0.006164
v -0.196954 -0.053076 0.011539
v -0.192243 -0.055677 0.006164
v -0.239576 -0.110972 0.011539
v -0.235732 -0.114755 0.006164
v -0.324275 -0.105851 0.006164
v -0.317482 -0.116834 0.006164
v -0.310688 -0.127817 0.006164
v -0.303895 -0.138800 0.006164
v -0.297102 -0.149783 0.006164
v -0.294804 -0.143280 0.011539
v -0.300598 -0.133913 0.011539
v -0.306392 -0.124545 0.011539
v -0.312186 -0.115178 0.011539
v -0.317980 -0.105811 0.011539
v -0.269798 -0.122865 0.011539
v -0.276347 -0.114799 0.011539
v -0.282895 -0.106734 0.011539
v -0.289444 -0.098668 0.011539
v -0.295992 -0.090603 0.011539
v -0.217886 0.021827 0.011539
v -0.208128 0.019503 0.006707
v -0.198370 0.017179 0.011539
v -0.188612 0.014855 0.006707
v -0.178854 0.012530 0.011539
v -0.163282 0.086633 0.011539
v -0.174545 0.086633 0.006707
v -0.185808 0.086633 0.011539
v -0.197071 0.086633 0.006707
v -0.208333 0.086633 0.011539
v -0.246662 -0.104000 0.011539
v -0.253748 -0.097028 0.006707
v -0.260834 -0.090055 0.011539
v -0.267920 -0.083083 0.006707
v -0.275006 -0.076111 0.011539
v -0.205320 -0.048459 0.011539
v -0.213687 -0.043841 0.006707
v -0.222053 -0.039223 0.011539
v -0.230420 -0.034606 0.006707
v -0.238786 -0.029988 0.011539
v -0.142719 0.060814 -0.015431
v -0.142719 0.060814 0.000000
v -0.147917 0.066075 0.000000
v -0.147917 0.066075 -0.015431
v -0.207044 0.068383 -0.015431
v -0.207044 0.068383 0.000000
v -0.213669 0.068641 -0.015431
v -0.213669 0.068641 0.000000
v -0.259864 -0.135100 -0.000000
v -0.305907 -0.078392 -0.000000
v -0.331069 -0.094868 -0.000000
v -0.225079 0.086633 0.000000
v -0.290308 -0.160766 -0.000000
v -0.146445 0.086633 0.000000
v -0.235732 -0.114755 -0.000000
v -0.192243 -0.055677 -0.000000
v -0.163800 0.008945 0.000000
v -0.285961 -0.065331 -0.000000
v -0.251940 -0.022728 -0.000000
v -0.232966 0.025419 0.000000
v -0.323774 -0.096444 -0.011539
v -0.331069 -0.094868 -0.006164
v -0.225079 0.086633 -0.006164
v -0.219596 0.086633 -0.011539
v -0.289010 -0.152647 -0.011539
v -0.290308 -0.160766 -0.006164
v -0.152019 0.086633 -0.011539
v -0.146445 0.086633 -0.006164
v -0.282092 -0.069138 -0.011539
v -0.285961 -0.065331 -0.006164
v -0.247153 -0.025370 -0.011539
v -0.251940 -0.022728 -0.006164
v -0.232966 0.025419 -0.006164
v -0.227644 0.024152 -0.011539
v -0.305907 -0.078392 -0.006164
v -0.302541 -0.082537 -0.011539
v -0.259864 -0.135100 -0.006164
v -0.263250 -0.130930 -0.011539
v -0.169096 0.010206 -0.011539
v -0.163800 0.008945 -0.006164
v -0.196954 -0.053076 -0.011539
v -0.192243 -0.055677 -0.006164
v -0.239576 -0.110972 -0.011539
v -0.235732 -0.114755 -0.006164
v -0.297102 -0.149783 -0.000000
v -0.303895 -0.138800 -0.000000
v -0.310688 -0.127817 -0.000000
v -0.317482 -0.116834 -0.000000
v -0.324275 -0.105851 -0.000000
v -0.324275 -0.105851 -0.006164
v -0.317482 -0.116834 -0.006164
v -0.310688 -0.127817 -0.006164
v -0.303895 -0.138800 -0.006164
v -0.297102 -0.149783 -0.006164
v -0.294804 -0.143280 -0.011539
v -0.300598 -0.133913 -0.011539
v -0.306392 -0.124545 -0.011539
v -0.312186 -0.115178 -0.011539
v -0.317980 -0.105811 -0.011539
v -0.269798 -0.122865 -0.011539
v -0.276347 -0.114799 -0.011539
v -0.282895 -0.106734 -0.011539
v -0.289444 -0.098668 -0.011539
v -0.295992 -0.090603 -0.011539
v -0.217886 0.021827 -0.011539
v -0.208128 0.019503 -0.006707
v -0.198370 0.017179 -0.011539
v -0.188612 0.014855 -0.006707
v -0.178854 0.012530 -0.011539
v -0.163282 0.086633 -0.011539
v -0.174545 0.086633 -0.006707
v -0.185808 0.086633 -0.011539
v -0.197071 0.086633 -0.006707
v -0.208333 0.086633 -0.011539
v -0.246662 -0.104000 -0.011539
v -0.253748 -0.097028 -0.006707
v -0.260834 -0.090055 -0.011539
v -0.267920 -0.083083 -0.006707
v -0.275006 -0.076111 -0.011539
v -0.205320 -0.048459 -0.011539
v -0.213687 -0.043841 -0.006707
v -0.222053 -0.039223 -0.011539
v -0.230420 -0.034605 -0.006707
v -0.238786 -0.029988 -0.011539
vt 0.920946 0.917542
vt 0.920190 0.917542
vt 0.920190 0.917282
vt 0.920946 0.917282
vt 0.920190 0.914384
vt 0.920946 0.914384
vt 0.920190 0.914060
vt 0.920946 0.914060
vt 0.927681 0.912912
vt 0.927681 0.911920
vt 0.927983 0.911920
vt 0.927983 0.912911
vt 0.918867 0.916289
vt 0.918867 0.920138
vt 0.918565 0.920138
vt 0.918302 0.919870
vt 0.918302 0.919319
vt 0.918539 0.918767
vt 0.918302 0.918216
vt 0.918539 0.917664
vt 0.918302 0.917113
vt 0.918302 0.916561
vt 0.918565 0.916289
vt 0.909290 0.892876
vt 0.908735 0.891690
vt 0.909212 0.891511
vt 0.909766 0.892623
vt 0.927149 0.892102
vt 0.927149 0.893564
vt 0.926847 0.893563
vt 0.926847 0.892102
vt 0.923158 0.914354
vt 0.923158 0.916478
vt 0.922856 0.916478
vt 0.922856 0.914354
vt 0.923158 0.918857
vt 0.922856 0.918857
vt 0.927149 0.894722
vt 0.926847 0.894722
vt 0.925294 0.918806
vt 0.925294 0.915692
vt 0.925595 0.915692
vt 0.925595 0.918806
vt 0.925294 0.921622
vt 0.925595 0.921622
vt 0.923158 0.921863
vt 0.922856 0.921863
vt 0.907813 0.887715
vt 0.908209 0.885008
vt 0.908679 0.885151
vt 0.908281 0.887726
vt 0.908206 0.890559
vt 0.908678 0.890439
vt 0.925294 0.911920
vt 0.925595 0.911920
vt 0.926986 0.885666
vt 0.926986 0.886196
vt 0.926684 0.886196
vt 0.926684 0.885666
vt 0.909405 0.882032
vt 0.909882 0.882311
vt 0.910117 0.882440
vt 0.908939 0.885223
vt 0.906355 0.892586
vt 0.906908 0.894140
vt 0.906766 0.894510
vt 0.906112 0.892673
vt 0.907324 0.894213
vt 0.907384 0.893888
vt 0.908939 0.890368
vt 0.909460 0.891413
vt 0.908552 0.887727
vt 0.907024 0.880641
vt 0.905859 0.884294
vt 0.905607 0.884211
vt 0.906792 0.880498
vt 0.905474 0.887657
vt 0.905214 0.887645
vt 0.905847 0.891158
vt 0.905594 0.891217
vt 0.910117 0.892731
vt 0.927681 0.914162
vt 0.927983 0.914162
vt 0.909558 0.893027
vt 0.909000 0.893324
vt 0.908813 0.893129
vt 0.908441 0.893620
vt 0.908337 0.893382
vt 0.907883 0.893917
vt 0.907861 0.893635
vt 0.907500 0.880920
vt 0.906329 0.884437
vt 0.907979 0.881193
vt 0.906802 0.884574
vt 0.908453 0.881476
vt 0.907269 0.884722
vt 0.908932 0.881749
vt 0.907742 0.884860
vt 0.926986 0.883016
vt 0.926986 0.883546
vt 0.926684 0.883546
vt 0.926684 0.883016
vt 0.926986 0.884076
vt 0.926684 0.884076
vt 0.926986 0.884606
vt 0.926684 0.884606
vt 0.926986 0.885136
vt 0.926684 0.885136
vt 0.906319 0.891038
vt 0.906831 0.892407
vt 0.906793 0.890913
vt 0.907307 0.892228
vt 0.907262 0.890798
vt 0.907783 0.892048
vt 0.907737 0.890674
vt 0.908259 0.891869
vt 0.905942 0.887669
vt 0.906413 0.887675
vt 0.906878 0.887692
vt 0.907348 0.887698
vt 0.921702 0.917282
vt 0.921702 0.917542
vt 0.921702 0.914384
vt 0.921702 0.914060
vt 0.928285 0.912911
vt 0.928285 0.911920
vt 0.919169 0.916289
vt 0.919432 0.916562
vt 0.919432 0.917113
vt 0.919196 0.917664
vt 0.919432 0.918216
vt 0.919196 0.918767
vt 0.919432 0.919319
vt 0.919432 0.919870
vt 0.919169 0.920138
vt 0.909289 0.896805
vt 0.909766 0.897058
vt 0.909211 0.898171
vt 0.908735 0.897991
vt 0.927451 0.892103
vt 0.927451 0.893564
vt 0.922554 0.914354
vt 0.922554 0.916478
vt 0.922554 0.918857
vt 0.927451 0.894722
vt 0.924992 0.918806
vt 0.924992 0.915692
vt 0.924992 0.921622
vt 0.922554 0.921863
vt 0.907813 0.901967
vt 0.908281 0.901955
vt 0.908679 0.904531
vt 0.908209 0.904673
vt 0.908206 0.899122
vt 0.908677 0.899242
vt 0.924992 0.911920
vt 0.927288 0.885666
vt 0.927288 0.886196
vt 0.909881 0.907370
vt 0.909405 0.907649
vt 0.908939 0.904459
vt 0.910117 0.907241
vt 0.906355 0.897096
vt 0.906112 0.897009
vt 0.906766 0.895172
vt 0.906908 0.895541
vt 0.907324 0.895469
vt 0.907384 0.895794
vt 0.909460 0.898269
vt 0.908939 0.899314
vt 0.908552 0.901955
vt 0.907024 0.909040
vt 0.906792 0.909184
vt 0.905607 0.905471
vt 0.905859 0.905387
vt 0.905214 0.902037
vt 0.905474 0.902024
vt 0.905594 0.898465
vt 0.905847 0.898524
vt 0.910117 0.896951
vt 0.928285 0.914162
vt 0.909558 0.896654
vt 0.908813 0.896553
vt 0.909000 0.896358
vt 0.908337 0.896300
vt 0.908441 0.896061
vt 0.907860 0.896047
vt 0.907883 0.895765
vt 0.906329 0.905245
vt 0.907500 0.908762
vt 0.906802 0.905107
vt 0.907979 0.908489
vt 0.907269 0.904959
vt 0.908453 0.908205
vt 0.907742 0.904822
vt 0.908932 0.907932
vt 0.927288 0.883016
vt 0.927288 0.883546
vt 0.927288 0.884076
vt 0.927288 0.884606
vt 0.927288 0.885136
vt 0.906831 0.897275
vt 0.906318 0.898644
vt 0.907307 0.897454
vt 0.906793 0.898769
vt 0.907783 0.897633
vt 0.907262 0.898883
vt 0.908259 0.897812
vt 0.907737 0.899008
vt 0.905942 0.902013
vt 0.906413 0.902007
vt 0.906877 0.901990
vt 0.907348 0.901984
vn -0.7114 -0.7028 -0.0000
vn -0.0390 -0.9992 -0.0000
vn -0.5478 0.8366 0.0000
vn -0.0000 1.0000 -0.0000
vn 0.0000 -0.0000 1.0000
vn 0.6446 -0.7646 0.0000
vn -0.7814 0.6240 0.0000
vn -0.9304 0.3666 0.0000
vn 0.9153 -0.4028 0.0000
vn 0.8053 -0.5928 0.0000
vn -0.9918 0.1278 0.0000
vn 0.9759 -0.2180 0.0000
vn -0.8505 -0.5260 -0.0000
vn -0.6972 0.0898 0.7112
vn 0.4560 -0.5409 0.7068
vn -0.6014 -0.3720 0.7071
vn -0.3898 0.5951 0.7028
vn -0.3899 0.5952 0.7027
vn -0.3897 0.5951 0.7028
vn -0.5516 0.4404 0.7083
vn -0.6552 0.2582 0.7100
vn 0.6858 -0.1532 0.7114
vn 0.6483 -0.2854 0.7059
vn 0.5715 -0.4207 0.7046
vn 0.4560 -0.5409 0.7067
vn -0.3896 0.5950 0.7030
vn -0.4087 0.0830 0.9089
vn 0.4094 -0.0772 0.9091
vn -0.4102 0.0709 0.9092
vn 0.4110 -0.0642 0.9094
vn -0.0851 0.2340 0.9685
vn 0.2034 -0.1275 0.9708
vn -0.0735 0.2441 0.9670
vn 0.2017 -0.1291 0.9709
vn -0.3582 0.2682 0.8943
vn 0.3566 -0.2703 0.8943
vn -0.3549 0.2726 0.8943
vn 0.3530 -0.2751 0.8943
vn -0.4097 0.1764 0.8950
vn 0.4106 -0.1740 0.8951
vn -0.4117 0.1713 0.8951
vn 0.4128 -0.1683 0.8951
vn -0.0000 0.0000 -1.0000
vn 0.6446 -0.7645 0.0000
vn -0.6972 0.0898 -0.7112
vn 0.4560 -0.5409 -0.7068
vn -0.6014 -0.3720 -0.7071
vn -0.3898 0.5951 -0.7028
vn -0.3897 0.5951 -0.7028
vn -0.3899 0.5952 -0.7027
vn -0.5516 0.4404 -0.7083
vn -0.6552 0.2582 -0.7100
vn 0.6858 -0.1532 -0.7114
vn 0.6483 -0.2854 -0.7059
vn 0.5715 -0.4207 -0.7046
vn 0.4560 -0.5409 -0.7067
vn -0.3896 0.5950 -0.7030
vn -0.4087 0.0830 -0.9089
vn 0.4094 -0.0772 -0.9091
vn -0.4102 0.0709 -0.9092
vn 0.4110 -0.0642 -0.9094
vn -0.0851 0.2340 -0.9685
vn 0.2034 -0.1275 -0.9708
vn -0.0735 0.2441 -0.9670
vn 0.2017 -0.1291 -0.9709
vn -0.3582 0.2682 -0.8943
vn 0.3566 -0.2703 -0.8943
vn -0.3549 0.2726 -0.8943
vn 0.3530 -0.2751 -0.8943
vn -0.4097 0.1764 -0.8950
vn 0.4106 -0.1740 -0.8951
vn -0.4117 0.1713 -0.8951
vn 0.4128 -0.1683 -0.8951
usemtl Material.001
s 1
f 65/1/1 1/2/1 2/3/1 66/4/1
f 66/4/2 2/3/2 3/5/2 69/6/2
f 69/6/2 3/5/2 4/7/2 71/8/2
f 19/9/3 14/10/3 81/11/3 73/12/3
f 77/13/4 75/14/4 7/15/4 8/16/4 53/17/4 52/18/4 51/19/4 50/20/4 49/21/4 11/22/4 12/23/4
f 38/24/5 43/25/5 20/26/5 5/27/5
f 76/28/6 72/29/6 21/30/6 10/31/6
f 14/32/7 16/33/7 82/34/7 81/35/7
f 16/33/8 17/36/8 83/37/8 82/34/8
f 72/29/6 78/38/6 28/39/6 21/30/6
f 79/40/9 80/41/9 24/42/9 26/43/9
f 78/44/10 79/40/10 26/43/10 28/45/10
f 17/36/11 7/46/11 75/47/11 83/37/11
f 63/48/5 44/49/5 18/50/5 15/51/5
f 58/52/5 63/48/5 15/51/5 13/53/5
f 43/25/5 58/52/5 13/53/5 20/26/5
f 80/41/12 77/54/12 12/55/12 24/42/12
f 108/56/13 76/57/13 10/58/13 33/59/13
f 44/49/5 53/60/5 8/61/5 18/50/5
f 18/50/14 8/61/14 7/62/14 17/63/14
f 22/64/15 9/65/15 10/66/15 21/67/15
f 33/68/16 10/66/16 9/65/16 34/69/16
f 20/26/17 13/53/18 14/70/18 19/71/19
f 13/53/20 15/51/20 16/72/20 14/70/20
f 15/51/21 18/50/21 17/63/21 16/72/21
f 11/73/22 23/74/22 24/75/22 12/76/22
f 23/74/23 25/77/23 26/78/23 24/75/23
f 25/77/24 27/79/24 28/80/24 26/78/24
f 27/79/25 22/64/15 21/67/15 28/80/25
f 5/27/26 20/26/17 19/71/19 6/81/26
f 6/82/3 19/9/3 73/12/3 74/83/3
f 6/81/16 29/84/16 38/24/16 5/27/16
f 29/84/16 30/85/16 37/86/16 38/24/16
f 30/85/16 31/87/16 36/88/16 37/86/16
f 31/87/16 32/89/16 35/90/16 36/88/16
f 32/89/16 33/68/16 34/69/16 35/90/16
f 23/74/5 11/73/5 49/91/5 48/92/5
f 48/92/27 49/91/27 50/93/27 47/94/27
f 47/94/28 50/93/28 51/95/28 46/96/28
f 46/96/29 51/95/29 52/97/29 45/98/29
f 45/98/30 52/97/30 53/60/30 44/49/30
f 74/99/13 112/100/13 29/101/13 6/102/13
f 112/100/13 111/103/13 30/104/13 29/101/13
f 111/103/13 110/105/13 31/106/13 30/104/13
f 110/105/13 109/107/13 32/108/13 31/106/13
f 109/107/13 108/56/13 33/59/13 32/108/13
f 22/64/5 27/79/5 54/109/5 39/110/5
f 39/110/31 54/109/31 55/111/31 40/112/31
f 40/112/32 55/111/32 56/113/32 41/114/32
f 41/114/33 56/113/33 57/115/33 42/116/33
f 42/116/34 57/115/34 58/52/34 43/25/34
f 27/79/5 25/77/5 59/117/5 54/109/5
f 54/109/35 59/117/35 60/118/35 55/111/35
f 55/111/36 60/118/36 61/119/36 56/113/36
f 56/113/37 61/119/37 62/120/37 57/115/37
f 57/115/38 62/120/38 63/48/38 58/52/38
f 25/77/5 23/74/5 48/92/5 59/117/5
f 59/117/39 48/92/39 47/94/39 60/118/39
f 60/118/40 47/94/40 46/96/40 61/119/40
f 61/119/41 46/96/41 45/98/41 62/120/41
f 62/120/42 45/98/42 44/49/42 63/48/42
f 9/65/5 22/64/5 39/110/5 34/69/5
f 34/69/5 39/110/5 40/112/5 35/90/5
f 35/90/5 40/112/5 41/114/5 36/88/5
f 36/88/5 41/114/5 42/116/5 37/86/5
f 37/86/5 42/116/5 43/25/5 38/24/5
f 65/1/1 66/4/1 67/121/1 64/122/1
f 66/4/2 69/6/2 68/123/2 67/121/2
f 69/6/2 71/8/2 70/124/2 68/123/2
f 98/125/3 73/12/3 81/11/3 93/126/3
f 77/13/4 91/127/4 90/128/4 133/129/4 134/130/4 135/131/4 136/132/4 137/133/4 87/134/4 86/135/4 75/14/4
f 122/136/43 84/137/43 99/138/43 127/139/43
f 76/28/6 89/140/6 100/141/6 72/29/6
f 93/142/7 81/35/7 82/34/7 95/143/7
f 95/143/8 82/34/8 83/37/8 96/144/8
f 72/29/6 100/141/6 107/145/44 78/38/6
f 79/40/9 105/146/9 103/147/9 80/41/9
f 78/44/10 107/148/10 105/146/10 79/40/10
f 96/144/11 83/37/11 75/47/11 86/149/11
f 147/150/43 94/151/43 97/152/43 128/153/43
f 142/154/43 92/155/43 94/151/43 147/150/43
f 127/139/43 99/138/43 92/155/43 142/154/43
f 80/41/12 103/147/12 91/156/12 77/54/12
f 108/56/13 117/157/13 89/158/13 76/57/13
f 128/153/43 97/152/43 87/159/43 137/160/43
f 97/152/45 96/161/45 86/162/45 87/159/45
f 101/163/46 100/164/46 89/165/46 88/166/46
f 117/167/47 118/168/47 88/166/47 89/165/47
f 99/138/48 98/169/49 93/170/50 92/155/50
f 92/155/51 93/170/51 95/171/51 94/151/51
f 94/151/52 95/171/52 96/161/52 97/152/52
f 90/172/53 91/173/53 103/174/53 102/175/53
f 102/175/54 103/174/54 105/176/54 104/177/54
f 104/177/55 105/176/55 107/178/55 106/179/55
f 106/179/56 107/178/56 100/164/46 101/163/46
f 84/137/57 85/180/57 98/169/49 99/138/48
f 85/181/3 74/83/3 73/12/3 98/125/3
f 85/180/47 84/137/47 122/136/47 113/182/47
f 113/182/47 122/136/47 121/183/47 114/184/47
f 114/184/47 121/183/47 120/185/47 115/186/47
f 115/186/47 120/185/47 119/187/47 116/188/47
f 116/188/47 119/187/47 118/168/47 117/167/47
f 102/175/43 132/189/43 133/190/43 90/172/43
f 132/189/58 131/191/58 134/192/58 133/190/58
f 131/191/59 130/193/59 135/194/59 134/192/59
f 130/193/60 129/195/60 136/196/60 135/194/60
f 129/195/61 128/153/61 137/160/61 136/196/61
f 74/99/13 85/197/13 113/198/13 112/100/13
f 112/100/13 113/198/13 114/199/13 111/103/13
f 111/103/13 114/199/13 115/200/13 110/105/13
f 110/105/13 115/200/13 116/201/13 109/107/13
f 109/107/13 116/201/13 117/157/13 108/56/13
f 101/163/43 123/202/43 138/203/43 106/179/43
f 123/202/62 124/204/62 139/205/62 138/203/62
f 124/204/63 125/206/63 140/207/63 139/205/63
f 125/206/64 126/208/64 141/209/64 140/207/64
f 126/208/65 127/139/65 142/154/65 141/209/65
f 106/179/43 138/203/43 143/210/43 104/177/43
f 138/203/66 139/205/66 144/211/66 143/210/66
f 139/205/67 140/207/67 145/212/67 144/211/67
f 140/207/68 141/209/68 146/213/68 145/212/68
f 141/209/69 142/154/69 147/150/69 146/213/69
f 104/177/43 143/210/43 132/189/43 102/175/43
f 143/210/70 144/211/70 131/191/70 132/189/70
f 144/211/71 145/212/71 130/193/71 131/191/71
f 145/212/72 146/213/72 129/195/72 130/193/72
f 146/213/73 147/150/73 128/153/73 129/195/73
f 88/166/43 118/168/43 123/202/43 101/163/43
f 118/168/43 119/187/43 124/204/43 123/202/43
f 119/187/43 120/185/43 125/206/43 124/204/43
f 120/185/43 121/183/43 126/208/43 125/206/43
f 121/183/43 122/136/43 127/139/43 126/208/43
